<?xml version='1.0' encoding='UTF-8'?>
<svg width="145mm" height="145mm" version="1.1" xmlns="http://www.w3.org/2000/svg"><rect fill="#eeeeee" x="0" y="0" width="100%" height="100%"/><rect x="20mm" y="20mm" width="5mm" height="5mm"/><rect x="25mm" y="20mm" width="5mm" height="5mm"/><rect x="30mm" y="20mm" width="5mm" height="5mm"/><rect x="35mm" y="20mm" width="5mm" height="5mm"/><rect x="40mm" y="20mm" width="5mm" height="5mm"/><rect x="45mm" y="20mm" width="5mm" height="5mm"/><rect x="50mm" y="20mm" width="5mm" height="5mm"/><rect x="60mm" y="20mm" width="5mm" height="5mm"/><rect x="65mm" y="20mm" width="5mm" height="5mm"/><rect x="70mm" y="20mm" width="5mm" height="5mm"/><rect x="90mm" y="20mm" width="5mm" height="5mm"/><rect x="95mm" y="20mm" width="5mm" height="5mm"/><rect x="100mm" y="20mm" width="5mm" height="5mm"/><rect x="105mm" y="20mm" width="5mm" height="5mm"/><rect x="110mm" y="20mm" width="5mm" height="5mm"/><rect x="115mm" y="20mm" width="5mm" height="5mm"/><rect x="120mm" y="20mm" width="5mm" height="5mm"/><rect x="20mm" y="25mm" width="5mm" height="5mm"/><rect x="50mm" y="25mm" width="5mm" height="5mm"/><rect x="60mm" y="25mm" width="5mm" height="5mm"/><rect x="70mm" y="25mm" width="5mm" height="5mm"/><rect x="75mm" y="25mm" width="5mm" height="5mm"/><rect x="90mm" y="25mm" width="5mm" height="5mm"/><rect x="120mm" y="25mm" width="5mm" height="5mm"/><rect x="20mm" y="30mm" width="5mm" height="5mm"/><rect x="30mm" y="30mm" width="5mm" height="5mm"/><rect x="35mm" y="30mm" width="5mm" height="5mm"/><rect x="40mm" y="30mm" width="5mm" height="5mm"/><rect x="50mm" y="30mm" width="5mm" height="5mm"/><rect x="70mm" y="30mm" width="5mm" height="5mm"/><rect x="80mm" y="30mm" width="5mm" height="5mm"/><rect x="90mm" y="30mm" width="5mm" height="5mm"/><rect x="100mm" y="30mm" width="5mm" height="5mm"/><rect x="105mm" y="30mm" width="5mm" height="5mm"/><rect x="110mm" y="30mm" width="5mm" height="5mm"/><rect x="120mm" y="30mm" width="5mm" height="5mm"/><rect x="20mm" y="35mm" width="5mm" height="5mm"/><rect x="30mm" y="35mm" width="5mm" height="5mm"/><rect x="35mm" y="35mm" width="5mm" height="5mm"/><rect x="40mm" y="35mm" width="5mm" height="5mm"/><rect x="50mm" y="35mm" width="5mm" height="5mm"/><rect x="70mm" y="35mm" width="5mm" height="5mm"/><rect x="90mm" y="35mm" width="5mm" height="5mm"/><rect x="100mm" y="35mm" width="5mm" height="5mm"/><rect x="105mm" y="35mm" width="5mm" height="5mm"/><rect x="110mm" y="35mm" width="5mm" height="5mm"/><rect x="120mm" y="35mm" width="5mm" height="5mm"/><rect x="20mm" y="40mm" width="5mm" height="5mm"/><rect x="30mm" y="40mm" width="5mm" height="5mm"/><rect x="35mm" y="40mm" width="5mm" height="5mm"/><rect x="40mm" y="40mm" width="5mm" height="5mm"/><rect x="50mm" y="40mm" width="5mm" height="5mm"/><rect x="60mm" y="40mm" width="5mm" height="5mm"/><rect x="70mm" y="40mm" width="5mm" height="5mm"/><rect x="75mm" y="40mm" width="5mm" height="5mm"/><rect x="90mm" y="40mm" width="5mm" height="5mm"/><rect x="100mm" y="40mm" width="5mm" height="5mm"/><rect x="105mm" y="40mm" width="5mm" height="5mm"/><rect x="110mm" y="40mm" width="5mm" height="5mm"/><rect x="120mm" y="40mm" width="5mm" height="5mm"/><rect x="20mm" y="45mm" width="5mm" height="5mm"/><rect x="50mm" y="45mm" width="5mm" height="5mm"/><rect x="60mm" y="45mm" width="5mm" height="5mm"/><rect x="75mm" y="45mm" width="5mm" height="5mm"/><rect x="90mm" y="45mm" width="5mm" height="5mm"/><rect x="120mm" y="45mm" width="5mm" height="5mm"/><rect x="20mm" y="50mm" width="5mm" height="5mm"/><rect x="25mm" y="50mm" width="5mm" height="5mm"/><rect x="30mm" y="50mm" width="5mm" height="5mm"/><rect x="35mm" y="50mm" width="5mm" height="5mm"/><rect x="40mm" y="50mm" width="5mm" height="5mm"/><rect x="45mm" y="50mm" width="5mm" height="5mm"/><rect x="50mm" y="50mm" width="5mm" height="5mm"/><rect x="60mm" y="50mm" width="5mm" height="5mm"/><rect x="70mm" y="50mm" width="5mm" height="5mm"/><rect x="80mm" y="50mm" width="5mm" height="5mm"/><rect x="90mm" y="50mm" width="5mm" height="5mm"/><rect x="95mm" y="50mm" width="5mm" height="5mm"/><rect x="100mm" y="50mm" width="5mm" height="5mm"/><rect x="105mm" y="50mm" width="5mm" height="5mm"/><rect x="110mm" y="50mm" width="5mm" height="5mm"/><rect x="115mm" y="50mm" width="5mm" height="5mm"/><rect x="120mm" y="50mm" width="5mm" height="5mm"/><rect x="60mm" y="55mm" width="5mm" height="5mm"/><rect x="75mm" y="55mm" width="5mm" height="5mm"/><rect x="80mm" y="55mm" width="5mm" height="5mm"/><rect x="20mm" y="60mm" width="5mm" height="5mm"/><rect x="25mm" y="60mm" width="5mm" height="5mm"/><rect x="30mm" y="60mm" width="5mm" height="5mm"/><rect x="45mm" y="60mm" width="5mm" height="5mm"/><rect x="50mm" y="60mm" width="5mm" height="5mm"/><rect x="60mm" y="60mm" width="5mm" height="5mm"/><rect x="65mm" y="60mm" width="5mm" height="5mm"/><rect x="70mm" y="60mm" width="5mm" height="5mm"/><rect x="75mm" y="60mm" width="5mm" height="5mm"/><rect x="80mm" y="60mm" width="5mm" height="5mm"/><rect x="85mm" y="60mm" width="5mm" height="5mm"/><rect x="90mm" y="60mm" width="5mm" height="5mm"/><rect x="95mm" y="60mm" width="5mm" height="5mm"/><rect x="100mm" y="60mm" width="5mm" height="5mm"/><rect x="115mm" y="60mm" width="5mm" height="5mm"/><rect x="120mm" y="60mm" width="5mm" height="5mm"/><rect x="20mm" y="65mm" width="5mm" height="5mm"/><rect x="25mm" y="65mm" width="5mm" height="5mm"/><rect x="30mm" y="65mm" width="5mm" height="5mm"/><rect x="40mm" y="65mm" width="5mm" height="5mm"/><rect x="45mm" y="65mm" width="5mm" height="5mm"/><rect x="55mm" y="65mm" width="5mm" height="5mm"/><rect x="80mm" y="65mm" width="5mm" height="5mm"/><rect x="85mm" y="65mm" width="5mm" height="5mm"/><rect x="90mm" y="65mm" width="5mm" height="5mm"/><rect x="100mm" y="65mm" width="5mm" height="5mm"/><rect x="105mm" y="65mm" width="5mm" height="5mm"/><rect x="120mm" y="65mm" width="5mm" height="5mm"/><rect x="35mm" y="70mm" width="5mm" height="5mm"/><rect x="40mm" y="70mm" width="5mm" height="5mm"/><rect x="50mm" y="70mm" width="5mm" height="5mm"/><rect x="55mm" y="70mm" width="5mm" height="5mm"/><rect x="60mm" y="70mm" width="5mm" height="5mm"/><rect x="65mm" y="70mm" width="5mm" height="5mm"/><rect x="70mm" y="70mm" width="5mm" height="5mm"/><rect x="80mm" y="70mm" width="5mm" height="5mm"/><rect x="85mm" y="70mm" width="5mm" height="5mm"/><rect x="100mm" y="70mm" width="5mm" height="5mm"/><rect x="110mm" y="70mm" width="5mm" height="5mm"/><rect x="120mm" y="70mm" width="5mm" height="5mm"/><rect x="20mm" y="75mm" width="5mm" height="5mm"/><rect x="25mm" y="75mm" width="5mm" height="5mm"/><rect x="60mm" y="75mm" width="5mm" height="5mm"/><rect x="65mm" y="75mm" width="5mm" height="5mm"/><rect x="75mm" y="75mm" width="5mm" height="5mm"/><rect x="80mm" y="75mm" width="5mm" height="5mm"/><rect x="95mm" y="75mm" width="5mm" height="5mm"/><rect x="105mm" y="75mm" width="5mm" height="5mm"/><rect x="30mm" y="80mm" width="5mm" height="5mm"/><rect x="40mm" y="80mm" width="5mm" height="5mm"/><rect x="45mm" y="80mm" width="5mm" height="5mm"/><rect x="50mm" y="80mm" width="5mm" height="5mm"/><rect x="60mm" y="80mm" width="5mm" height="5mm"/><rect x="70mm" y="80mm" width="5mm" height="5mm"/><rect x="85mm" y="80mm" width="5mm" height="5mm"/><rect x="100mm" y="80mm" width="5mm" height="5mm"/><rect x="105mm" y="80mm" width="5mm" height="5mm"/><rect x="120mm" y="80mm" width="5mm" height="5mm"/><rect x="60mm" y="85mm" width="5mm" height="5mm"/><rect x="80mm" y="85mm" width="5mm" height="5mm"/><rect x="85mm" y="85mm" width="5mm" height="5mm"/><rect x="90mm" y="85mm" width="5mm" height="5mm"/><rect x="100mm" y="85mm" width="5mm" height="5mm"/><rect x="105mm" y="85mm" width="5mm" height="5mm"/><rect x="120mm" y="85mm" width="5mm" height="5mm"/><rect x="20mm" y="90mm" width="5mm" height="5mm"/><rect x="25mm" y="90mm" width="5mm" height="5mm"/><rect x="30mm" y="90mm" width="5mm" height="5mm"/><rect x="35mm" y="90mm" width="5mm" height="5mm"/><rect x="40mm" y="90mm" width="5mm" height="5mm"/><rect x="45mm" y="90mm" width="5mm" height="5mm"/><rect x="50mm" y="90mm" width="5mm" height="5mm"/><rect x="70mm" y="90mm" width="5mm" height="5mm"/><rect x="75mm" y="90mm" width="5mm" height="5mm"/><rect x="80mm" y="90mm" width="5mm" height="5mm"/><rect x="85mm" y="90mm" width="5mm" height="5mm"/><rect x="100mm" y="90mm" width="5mm" height="5mm"/><rect x="110mm" y="90mm" width="5mm" height="5mm"/><rect x="120mm" y="90mm" width="5mm" height="5mm"/><rect x="20mm" y="95mm" width="5mm" height="5mm"/><rect x="50mm" y="95mm" width="5mm" height="5mm"/><rect x="60mm" y="95mm" width="5mm" height="5mm"/><rect x="75mm" y="95mm" width="5mm" height="5mm"/><rect x="85mm" y="95mm" width="5mm" height="5mm"/><rect x="95mm" y="95mm" width="5mm" height="5mm"/><rect x="105mm" y="95mm" width="5mm" height="5mm"/><rect x="115mm" y="95mm" width="5mm" height="5mm"/><rect x="20mm" y="100mm" width="5mm" height="5mm"/><rect x="30mm" y="100mm" width="5mm" height="5mm"/><rect x="35mm" y="100mm" width="5mm" height="5mm"/><rect x="40mm" y="100mm" width="5mm" height="5mm"/><rect x="50mm" y="100mm" width="5mm" height="5mm"/><rect x="70mm" y="100mm" width="5mm" height="5mm"/><rect x="85mm" y="100mm" width="5mm" height="5mm"/><rect x="100mm" y="100mm" width="5mm" height="5mm"/><rect x="115mm" y="100mm" width="5mm" height="5mm"/><rect x="120mm" y="100mm" width="5mm" height="5mm"/><rect x="20mm" y="105mm" width="5mm" height="5mm"/><rect x="30mm" y="105mm" width="5mm" height="5mm"/><rect x="35mm" y="105mm" width="5mm" height="5mm"/><rect x="40mm" y="105mm" width="5mm" height="5mm"/><rect x="50mm" y="105mm" width="5mm" height="5mm"/><rect x="65mm" y="105mm" width="5mm" height="5mm"/><rect x="70mm" y="105mm" width="5mm" height="5mm"/><rect x="80mm" y="105mm" width="5mm" height="5mm"/><rect x="100mm" y="105mm" width="5mm" height="5mm"/><rect x="115mm" y="105mm" width="5mm" height="5mm"/><rect x="20mm" y="110mm" width="5mm" height="5mm"/><rect x="30mm" y="110mm" width="5mm" height="5mm"/><rect x="35mm" y="110mm" width="5mm" height="5mm"/><rect x="40mm" y="110mm" width="5mm" height="5mm"/><rect x="50mm" y="110mm" width="5mm" height="5mm"/><rect x="60mm" y="110mm" width="5mm" height="5mm"/><rect x="65mm" y="110mm" width="5mm" height="5mm"/><rect x="80mm" y="110mm" width="5mm" height="5mm"/><rect x="100mm" y="110mm" width="5mm" height="5mm"/><rect x="105mm" y="110mm" width="5mm" height="5mm"/><rect x="115mm" y="110mm" width="5mm" height="5mm"/><rect x="120mm" y="110mm" width="5mm" height="5mm"/><rect x="20mm" y="115mm" width="5mm" height="5mm"/><rect x="50mm" y="115mm" width="5mm" height="5mm"/><rect x="60mm" y="115mm" width="5mm" height="5mm"/><rect x="70mm" y="115mm" width="5mm" height="5mm"/><rect x="75mm" y="115mm" width="5mm" height="5mm"/><rect x="80mm" y="115mm" width="5mm" height="5mm"/><rect x="85mm" y="115mm" width="5mm" height="5mm"/><rect x="95mm" y="115mm" width="5mm" height="5mm"/><rect x="105mm" y="115mm" width="5mm" height="5mm"/><rect x="20mm" y="120mm" width="5mm" height="5mm"/><rect x="25mm" y="120mm" width="5mm" height="5mm"/><rect x="30mm" y="120mm" width="5mm" height="5mm"/><rect x="35mm" y="120mm" width="5mm" height="5mm"/><rect x="40mm" y="120mm" width="5mm" height="5mm"/><rect x="45mm" y="120mm" width="5mm" height="5mm"/><rect x="50mm" y="120mm" width="5mm" height="5mm"/><rect x="60mm" y="120mm" width="5mm" height="5mm"/><rect x="70mm" y="120mm" width="5mm" height="5mm"/><rect x="85mm" y="120mm" width="5mm" height="5mm"/><rect x="95mm" y="120mm" width="5mm" height="5mm"/><rect x="120mm" y="120mm" width="5mm" height="5mm"/></svg>