<?xml version="1.0" encoding="UTF-8" standalone="no"?>
<svg
   width="105mm"
   height="105mm"
   version="1.1"
   id="svg2427"
   sodipodi:docname="qr.svg"
   inkscape:version="1.1.2 (0a00cf5339, 2022-02-04)"
   xmlns:inkscape="http://www.inkscape.org/namespaces/inkscape"
   xmlns:sodipodi="http://sodipodi.sourceforge.net/DTD/sodipodi-0.dtd"
   xmlns="http://www.w3.org/2000/svg"
   xmlns:svg="http://www.w3.org/2000/svg">
  <defs
     id="defs2431" />
  <sodipodi:namedview
     id="namedview2429"
     pagecolor="#ffffff"
     bordercolor="#666666"
     borderopacity="1.0"
     inkscape:pageshadow="2"
     inkscape:pageopacity="0.0"
     inkscape:pagecheckerboard="0"
     inkscape:document-units="mm"
     showgrid="false"
     inkscape:zoom="1.415977"
     inkscape:cx="198.09644"
     inkscape:cy="198.44955"
     inkscape:window-width="1920"
     inkscape:window-height="1011"
     inkscape:window-x="0"
     inkscape:window-y="0"
     inkscape:window-maximized="1"
     inkscape:current-layer="svg2427" />
  <rect
     x="0"
     y="0"
     width="5mm"
     height="5mm"
     id="rect1979"
     style="fill:#eeeeee;fill-opacity:1" />
  <rect
     x="18.897636"
     y="0"
     width="5mm"
     height="5mm"
     id="rect1981"
     style="fill:#eeeeee;fill-opacity:1" />
  <rect
     x="37.795273"
     y="0"
     width="5mm"
     height="5mm"
     id="rect1983"
     style="fill:#eeeeee;fill-opacity:1" />
  <rect
     x="56.692909"
     y="0"
     width="5mm"
     height="5mm"
     id="rect1985"
     style="fill:#eeeeee;fill-opacity:1" />
  <rect
     x="75.590553"
     y="0"
     width="5mm"
     height="5mm"
     id="rect1987"
     style="fill:#eeeeee;fill-opacity:1" />
  <rect
     x="94.488182"
     y="0"
     width="5mm"
     height="5mm"
     id="rect1989"
     style="fill:#eeeeee;fill-opacity:1" />
  <rect
     x="113.38583"
     y="0"
     width="5mm"
     height="5mm"
     id="rect1991"
     style="fill:#eeeeee;fill-opacity:1" />
  <rect
     x="151.18109"
     y="0"
     width="5mm"
     height="5mm"
     id="rect1993"
     style="fill:#eeeeee;fill-opacity:1" />
  <rect
     x="170.07874"
     y="0"
     width="5mm"
     height="5mm"
     id="rect1995"
     style="fill:#eeeeee;fill-opacity:1" />
  <rect
     x="226.77167"
     y="0"
     width="5mm"
     height="5mm"
     id="rect1997"
     style="fill:#eeeeee;fill-opacity:1" />
  <rect
     x="264.56693"
     y="0"
     width="5mm"
     height="5mm"
     id="rect1999"
     style="fill:#eeeeee;fill-opacity:1" />
  <rect
     x="283.46457"
     y="0"
     width="5mm"
     height="5mm"
     id="rect2001"
     style="fill:#eeeeee;fill-opacity:1" />
  <rect
     x="302.36221"
     y="0"
     width="5mm"
     height="5mm"
     id="rect2003"
     style="fill:#eeeeee;fill-opacity:1" />
  <rect
     x="321.25986"
     y="0"
     width="5mm"
     height="5mm"
     id="rect2005"
     style="fill:#eeeeee;fill-opacity:1" />
  <rect
     x="340.15747"
     y="0"
     width="5mm"
     height="5mm"
     id="rect2007"
     style="fill:#eeeeee;fill-opacity:1" />
  <rect
     x="359.05511"
     y="0"
     width="5mm"
     height="5mm"
     id="rect2009"
     style="fill:#eeeeee;fill-opacity:1" />
  <rect
     x="377.95276"
     y="0"
     width="5mm"
     height="5mm"
     id="rect2011"
     style="fill:#eeeeee;fill-opacity:1" />
  <rect
     x="0"
     y="18.897636"
     width="5mm"
     height="5mm"
     id="rect2013"
     style="fill:#eeeeee;fill-opacity:1" />
  <rect
     x="113.38583"
     y="18.897636"
     width="5mm"
     height="5mm"
     id="rect2015"
     style="fill:#eeeeee;fill-opacity:1" />
  <rect
     x="170.07874"
     y="18.897636"
     width="5mm"
     height="5mm"
     id="rect2017"
     style="fill:#eeeeee;fill-opacity:1" />
  <rect
     x="226.77167"
     y="18.897636"
     width="5mm"
     height="5mm"
     id="rect2019"
     style="fill:#eeeeee;fill-opacity:1" />
  <rect
     x="264.56693"
     y="18.897636"
     width="5mm"
     height="5mm"
     id="rect2021"
     style="fill:#eeeeee;fill-opacity:1" />
  <rect
     x="377.95276"
     y="18.897636"
     width="5mm"
     height="5mm"
     id="rect2023"
     style="fill:#eeeeee;fill-opacity:1" />
  <rect
     x="0"
     y="37.795273"
     width="5mm"
     height="5mm"
     id="rect2025"
     style="fill:#eeeeee;fill-opacity:1" />
  <rect
     x="37.795273"
     y="37.795273"
     width="5mm"
     height="5mm"
     id="rect2027"
     style="fill:#eeeeee;fill-opacity:1" />
  <rect
     x="56.692909"
     y="37.795273"
     width="5mm"
     height="5mm"
     id="rect2029"
     style="fill:#eeeeee;fill-opacity:1" />
  <rect
     x="75.590553"
     y="37.795273"
     width="5mm"
     height="5mm"
     id="rect2031"
     style="fill:#eeeeee;fill-opacity:1" />
  <rect
     x="113.38583"
     y="37.795273"
     width="5mm"
     height="5mm"
     id="rect2033"
     style="fill:#eeeeee;fill-opacity:1" />
  <rect
     x="151.18109"
     y="37.795273"
     width="5mm"
     height="5mm"
     id="rect2035"
     style="fill:#eeeeee;fill-opacity:1" />
  <rect
     x="188.97638"
     y="37.795273"
     width="5mm"
     height="5mm"
     id="rect2037"
     style="fill:#eeeeee;fill-opacity:1" />
  <rect
     x="226.77167"
     y="37.795273"
     width="5mm"
     height="5mm"
     id="rect2039"
     style="fill:#eeeeee;fill-opacity:1" />
  <rect
     x="264.56693"
     y="37.795273"
     width="5mm"
     height="5mm"
     id="rect2041"
     style="fill:#eeeeee;fill-opacity:1" />
  <rect
     x="302.36221"
     y="37.795273"
     width="5mm"
     height="5mm"
     id="rect2043"
     style="fill:#eeeeee;fill-opacity:1" />
  <rect
     x="321.25986"
     y="37.795273"
     width="5mm"
     height="5mm"
     id="rect2045"
     style="fill:#eeeeee;fill-opacity:1" />
  <rect
     x="340.15747"
     y="37.795273"
     width="5mm"
     height="5mm"
     id="rect2047"
     style="fill:#eeeeee;fill-opacity:1" />
  <rect
     x="377.95276"
     y="37.795273"
     width="5mm"
     height="5mm"
     id="rect2049"
     style="fill:#eeeeee;fill-opacity:1" />
  <rect
     x="0"
     y="56.692909"
     width="5mm"
     height="5mm"
     id="rect2051"
     style="fill:#eeeeee;fill-opacity:1" />
  <rect
     x="37.795273"
     y="56.692909"
     width="5mm"
     height="5mm"
     id="rect2053"
     style="fill:#eeeeee;fill-opacity:1" />
  <rect
     x="56.692909"
     y="56.692909"
     width="5mm"
     height="5mm"
     id="rect2055"
     style="fill:#eeeeee;fill-opacity:1" />
  <rect
     x="75.590553"
     y="56.692909"
     width="5mm"
     height="5mm"
     id="rect2057"
     style="fill:#eeeeee;fill-opacity:1" />
  <rect
     x="113.38583"
     y="56.692909"
     width="5mm"
     height="5mm"
     id="rect2059"
     style="fill:#eeeeee;fill-opacity:1" />
  <rect
     x="151.18109"
     y="56.692909"
     width="5mm"
     height="5mm"
     id="rect2061"
     style="fill:#eeeeee;fill-opacity:1" />
  <rect
     x="207.87402"
     y="56.692909"
     width="5mm"
     height="5mm"
     id="rect2063"
     style="fill:#eeeeee;fill-opacity:1" />
  <rect
     x="264.56693"
     y="56.692909"
     width="5mm"
     height="5mm"
     id="rect2065"
     style="fill:#eeeeee;fill-opacity:1" />
  <rect
     x="302.36221"
     y="56.692909"
     width="5mm"
     height="5mm"
     id="rect2067"
     style="fill:#eeeeee;fill-opacity:1" />
  <rect
     x="321.25986"
     y="56.692909"
     width="5mm"
     height="5mm"
     id="rect2069"
     style="fill:#eeeeee;fill-opacity:1" />
  <rect
     x="340.15747"
     y="56.692909"
     width="5mm"
     height="5mm"
     id="rect2071"
     style="fill:#eeeeee;fill-opacity:1" />
  <rect
     x="377.95276"
     y="56.692909"
     width="5mm"
     height="5mm"
     id="rect2073"
     style="fill:#eeeeee;fill-opacity:1" />
  <rect
     x="0"
     y="75.590553"
     width="5mm"
     height="5mm"
     id="rect2075"
     style="fill:#eeeeee;fill-opacity:1" />
  <rect
     x="37.795273"
     y="75.590553"
     width="5mm"
     height="5mm"
     id="rect2077"
     style="fill:#eeeeee;fill-opacity:1" />
  <rect
     x="56.692909"
     y="75.590553"
     width="5mm"
     height="5mm"
     id="rect2079"
     style="fill:#eeeeee;fill-opacity:1" />
  <rect
     x="75.590553"
     y="75.590553"
     width="5mm"
     height="5mm"
     id="rect2081"
     style="fill:#eeeeee;fill-opacity:1" />
  <rect
     x="113.38583"
     y="75.590553"
     width="5mm"
     height="5mm"
     id="rect2083"
     style="fill:#eeeeee;fill-opacity:1" />
  <rect
     x="151.18109"
     y="75.590553"
     width="5mm"
     height="5mm"
     id="rect2085"
     style="fill:#eeeeee;fill-opacity:1" />
  <rect
     x="170.07874"
     y="75.590553"
     width="5mm"
     height="5mm"
     id="rect2087"
     style="fill:#eeeeee;fill-opacity:1" />
  <rect
     x="188.97638"
     y="75.590553"
     width="5mm"
     height="5mm"
     id="rect2089"
     style="fill:#eeeeee;fill-opacity:1" />
  <rect
     x="264.56693"
     y="75.590553"
     width="5mm"
     height="5mm"
     id="rect2091"
     style="fill:#eeeeee;fill-opacity:1" />
  <rect
     x="302.36221"
     y="75.590553"
     width="5mm"
     height="5mm"
     id="rect2093"
     style="fill:#eeeeee;fill-opacity:1" />
  <rect
     x="321.25986"
     y="75.590553"
     width="5mm"
     height="5mm"
     id="rect2095"
     style="fill:#eeeeee;fill-opacity:1" />
  <rect
     x="340.15747"
     y="75.590553"
     width="5mm"
     height="5mm"
     id="rect2097"
     style="fill:#eeeeee;fill-opacity:1" />
  <rect
     x="377.95276"
     y="75.590553"
     width="5mm"
     height="5mm"
     id="rect2099"
     style="fill:#eeeeee;fill-opacity:1" />
  <rect
     x="0"
     y="94.488182"
     width="5mm"
     height="5mm"
     id="rect2101"
     style="fill:#eeeeee;fill-opacity:1" />
  <rect
     x="113.38583"
     y="94.488182"
     width="5mm"
     height="5mm"
     id="rect2103"
     style="fill:#eeeeee;fill-opacity:1" />
  <rect
     x="264.56693"
     y="94.488182"
     width="5mm"
     height="5mm"
     id="rect2105"
     style="fill:#eeeeee;fill-opacity:1" />
  <rect
     x="377.95276"
     y="94.488182"
     width="5mm"
     height="5mm"
     id="rect2107"
     style="fill:#eeeeee;fill-opacity:1" />
  <rect
     x="0"
     y="113.38583"
     width="5mm"
     height="5mm"
     id="rect2109"
     style="fill:#eeeeee;fill-opacity:1" />
  <rect
     x="18.897636"
     y="113.38583"
     width="5mm"
     height="5mm"
     id="rect2111"
     style="fill:#eeeeee;fill-opacity:1" />
  <rect
     x="37.795273"
     y="113.38583"
     width="5mm"
     height="5mm"
     id="rect2113"
     style="fill:#eeeeee;fill-opacity:1" />
  <rect
     x="56.692909"
     y="113.38583"
     width="5mm"
     height="5mm"
     id="rect2115"
     style="fill:#eeeeee;fill-opacity:1" />
  <rect
     x="75.590553"
     y="113.38583"
     width="5mm"
     height="5mm"
     id="rect2117"
     style="fill:#eeeeee;fill-opacity:1" />
  <rect
     x="94.488182"
     y="113.38583"
     width="5mm"
     height="5mm"
     id="rect2119"
     style="fill:#eeeeee;fill-opacity:1" />
  <rect
     x="113.38583"
     y="113.38583"
     width="5mm"
     height="5mm"
     id="rect2121"
     style="fill:#eeeeee;fill-opacity:1" />
  <rect
     x="151.18109"
     y="113.38583"
     width="5mm"
     height="5mm"
     id="rect2123"
     style="fill:#eeeeee;fill-opacity:1" />
  <rect
     x="188.97638"
     y="113.38583"
     width="5mm"
     height="5mm"
     id="rect2125"
     style="fill:#eeeeee;fill-opacity:1" />
  <rect
     x="226.77167"
     y="113.38583"
     width="5mm"
     height="5mm"
     id="rect2127"
     style="fill:#eeeeee;fill-opacity:1" />
  <rect
     x="264.56693"
     y="113.38583"
     width="5mm"
     height="5mm"
     id="rect2129"
     style="fill:#eeeeee;fill-opacity:1" />
  <rect
     x="283.46457"
     y="113.38583"
     width="5mm"
     height="5mm"
     id="rect2131"
     style="fill:#eeeeee;fill-opacity:1" />
  <rect
     x="302.36221"
     y="113.38583"
     width="5mm"
     height="5mm"
     id="rect2133"
     style="fill:#eeeeee;fill-opacity:1" />
  <rect
     x="321.25986"
     y="113.38583"
     width="5mm"
     height="5mm"
     id="rect2135"
     style="fill:#eeeeee;fill-opacity:1" />
  <rect
     x="340.15747"
     y="113.38583"
     width="5mm"
     height="5mm"
     id="rect2137"
     style="fill:#eeeeee;fill-opacity:1" />
  <rect
     x="359.05511"
     y="113.38583"
     width="5mm"
     height="5mm"
     id="rect2139"
     style="fill:#eeeeee;fill-opacity:1" />
  <rect
     x="377.95276"
     y="113.38583"
     width="5mm"
     height="5mm"
     id="rect2141"
     style="fill:#eeeeee;fill-opacity:1" />
  <rect
     x="170.07874"
     y="132.28345"
     width="5mm"
     height="5mm"
     id="rect2143"
     style="fill:#eeeeee;fill-opacity:1" />
  <rect
     x="188.97638"
     y="132.28345"
     width="5mm"
     height="5mm"
     id="rect2145"
     style="fill:#eeeeee;fill-opacity:1" />
  <rect
     x="0"
     y="151.18109"
     width="5mm"
     height="5mm"
     id="rect2147"
     style="fill:#eeeeee;fill-opacity:1" />
  <rect
     x="18.897636"
     y="151.18109"
     width="5mm"
     height="5mm"
     id="rect2149"
     style="fill:#eeeeee;fill-opacity:1" />
  <rect
     x="37.795273"
     y="151.18109"
     width="5mm"
     height="5mm"
     id="rect2151"
     style="fill:#eeeeee;fill-opacity:1" />
  <rect
     x="56.692909"
     y="151.18109"
     width="5mm"
     height="5mm"
     id="rect2153"
     style="fill:#eeeeee;fill-opacity:1" />
  <rect
     x="113.38583"
     y="151.18109"
     width="5mm"
     height="5mm"
     id="rect2155"
     style="fill:#eeeeee;fill-opacity:1" />
  <rect
     x="151.18109"
     y="151.18109"
     width="5mm"
     height="5mm"
     id="rect2157"
     style="fill:#eeeeee;fill-opacity:1" />
  <rect
     x="188.97638"
     y="151.18109"
     width="5mm"
     height="5mm"
     id="rect2159"
     style="fill:#eeeeee;fill-opacity:1" />
  <rect
     x="245.66931"
     y="151.18109"
     width="5mm"
     height="5mm"
     id="rect2161"
     style="fill:#eeeeee;fill-opacity:1" />
  <rect
     x="302.36221"
     y="151.18109"
     width="5mm"
     height="5mm"
     id="rect2163"
     style="fill:#eeeeee;fill-opacity:1" />
  <rect
     x="321.25986"
     y="151.18109"
     width="5mm"
     height="5mm"
     id="rect2165"
     style="fill:#eeeeee;fill-opacity:1" />
  <rect
     x="340.15747"
     y="151.18109"
     width="5mm"
     height="5mm"
     id="rect2167"
     style="fill:#eeeeee;fill-opacity:1" />
  <rect
     x="377.95276"
     y="151.18109"
     width="5mm"
     height="5mm"
     id="rect2169"
     style="fill:#eeeeee;fill-opacity:1" />
  <rect
     x="151.18109"
     y="170.07874"
     width="5mm"
     height="5mm"
     id="rect2171"
     style="fill:#eeeeee;fill-opacity:1" />
  <rect
     x="170.07874"
     y="170.07874"
     width="5mm"
     height="5mm"
     id="rect2173"
     style="fill:#eeeeee;fill-opacity:1" />
  <rect
     x="188.97638"
     y="170.07874"
     width="5mm"
     height="5mm"
     id="rect2175"
     style="fill:#eeeeee;fill-opacity:1" />
  <rect
     x="226.77167"
     y="170.07874"
     width="5mm"
     height="5mm"
     id="rect2177"
     style="fill:#eeeeee;fill-opacity:1" />
  <rect
     x="283.46457"
     y="170.07874"
     width="5mm"
     height="5mm"
     id="rect2179"
     style="fill:#eeeeee;fill-opacity:1" />
  <rect
     x="340.15747"
     y="170.07874"
     width="5mm"
     height="5mm"
     id="rect2181"
     style="fill:#eeeeee;fill-opacity:1" />
  <rect
     x="359.05511"
     y="170.07874"
     width="5mm"
     height="5mm"
     id="rect2183"
     style="fill:#eeeeee;fill-opacity:1" />
  <rect
     x="377.95276"
     y="170.07874"
     width="5mm"
     height="5mm"
     id="rect2185"
     style="fill:#eeeeee;fill-opacity:1" />
  <rect
     x="0"
     y="188.97638"
     width="5mm"
     height="5mm"
     id="rect2187"
     style="fill:#eeeeee;fill-opacity:1" />
  <rect
     x="18.897636"
     y="188.97638"
     width="5mm"
     height="5mm"
     id="rect2189"
     style="fill:#eeeeee;fill-opacity:1" />
  <rect
     x="56.692909"
     y="188.97638"
     width="5mm"
     height="5mm"
     id="rect2191"
     style="fill:#eeeeee;fill-opacity:1" />
  <rect
     x="75.590553"
     y="188.97638"
     width="5mm"
     height="5mm"
     id="rect2193"
     style="fill:#eeeeee;fill-opacity:1" />
  <rect
     x="113.38583"
     y="188.97638"
     width="5mm"
     height="5mm"
     id="rect2195"
     style="fill:#eeeeee;fill-opacity:1" />
  <rect
     x="151.18109"
     y="188.97638"
     width="5mm"
     height="5mm"
     id="rect2197"
     style="fill:#eeeeee;fill-opacity:1" />
  <rect
     x="226.77167"
     y="188.97638"
     width="5mm"
     height="5mm"
     id="rect2199"
     style="fill:#eeeeee;fill-opacity:1" />
  <rect
     x="245.66931"
     y="188.97638"
     width="5mm"
     height="5mm"
     id="rect2201"
     style="fill:#eeeeee;fill-opacity:1" />
  <rect
     x="264.56693"
     y="188.97638"
     width="5mm"
     height="5mm"
     id="rect2203"
     style="fill:#eeeeee;fill-opacity:1" />
  <rect
     x="283.46457"
     y="188.97638"
     width="5mm"
     height="5mm"
     id="rect2205"
     style="fill:#eeeeee;fill-opacity:1" />
  <rect
     x="302.36221"
     y="188.97638"
     width="5mm"
     height="5mm"
     id="rect2207"
     style="fill:#eeeeee;fill-opacity:1" />
  <rect
     x="321.25986"
     y="188.97638"
     width="5mm"
     height="5mm"
     id="rect2209"
     style="fill:#eeeeee;fill-opacity:1" />
  <rect
     x="340.15747"
     y="188.97638"
     width="5mm"
     height="5mm"
     id="rect2211"
     style="fill:#eeeeee;fill-opacity:1" />
  <rect
     x="359.05511"
     y="188.97638"
     width="5mm"
     height="5mm"
     id="rect2213"
     style="fill:#eeeeee;fill-opacity:1" />
  <rect
     x="377.95276"
     y="188.97638"
     width="5mm"
     height="5mm"
     id="rect2215"
     style="fill:#eeeeee;fill-opacity:1" />
  <rect
     x="18.897636"
     y="207.87402"
     width="5mm"
     height="5mm"
     id="rect2217"
     style="fill:#eeeeee;fill-opacity:1" />
  <rect
     x="56.692909"
     y="207.87402"
     width="5mm"
     height="5mm"
     id="rect2219"
     style="fill:#eeeeee;fill-opacity:1" />
  <rect
     x="94.488182"
     y="207.87402"
     width="5mm"
     height="5mm"
     id="rect2221"
     style="fill:#eeeeee;fill-opacity:1" />
  <rect
     x="132.28345"
     y="207.87402"
     width="5mm"
     height="5mm"
     id="rect2223"
     style="fill:#eeeeee;fill-opacity:1" />
  <rect
     x="151.18109"
     y="207.87402"
     width="5mm"
     height="5mm"
     id="rect2225"
     style="fill:#eeeeee;fill-opacity:1" />
  <rect
     x="170.07874"
     y="207.87402"
     width="5mm"
     height="5mm"
     id="rect2227"
     style="fill:#eeeeee;fill-opacity:1" />
  <rect
     x="188.97638"
     y="207.87402"
     width="5mm"
     height="5mm"
     id="rect2229"
     style="fill:#eeeeee;fill-opacity:1" />
  <rect
     x="226.77167"
     y="207.87402"
     width="5mm"
     height="5mm"
     id="rect2231"
     style="fill:#eeeeee;fill-opacity:1" />
  <rect
     x="245.66931"
     y="207.87402"
     width="5mm"
     height="5mm"
     id="rect2233"
     style="fill:#eeeeee;fill-opacity:1" />
  <rect
     x="0"
     y="226.77167"
     width="5mm"
     height="5mm"
     id="rect2235"
     style="fill:#eeeeee;fill-opacity:1" />
  <rect
     x="18.897636"
     y="226.77167"
     width="5mm"
     height="5mm"
     id="rect2237"
     style="fill:#eeeeee;fill-opacity:1" />
  <rect
     x="37.795273"
     y="226.77167"
     width="5mm"
     height="5mm"
     id="rect2239"
     style="fill:#eeeeee;fill-opacity:1" />
  <rect
     x="56.692909"
     y="226.77167"
     width="5mm"
     height="5mm"
     id="rect2241"
     style="fill:#eeeeee;fill-opacity:1" />
  <rect
     x="75.590553"
     y="226.77167"
     width="5mm"
     height="5mm"
     id="rect2243"
     style="fill:#eeeeee;fill-opacity:1" />
  <rect
     x="94.488182"
     y="226.77167"
     width="5mm"
     height="5mm"
     id="rect2245"
     style="fill:#eeeeee;fill-opacity:1" />
  <rect
     x="113.38583"
     y="226.77167"
     width="5mm"
     height="5mm"
     id="rect2247"
     style="fill:#eeeeee;fill-opacity:1" />
  <rect
     x="151.18109"
     y="226.77167"
     width="5mm"
     height="5mm"
     id="rect2249"
     style="fill:#eeeeee;fill-opacity:1" />
  <rect
     x="188.97638"
     y="226.77167"
     width="5mm"
     height="5mm"
     id="rect2251"
     style="fill:#eeeeee;fill-opacity:1" />
  <rect
     x="207.87402"
     y="226.77167"
     width="5mm"
     height="5mm"
     id="rect2253"
     style="fill:#eeeeee;fill-opacity:1" />
  <rect
     x="245.66931"
     y="226.77167"
     width="5mm"
     height="5mm"
     id="rect2255"
     style="fill:#eeeeee;fill-opacity:1" />
  <rect
     x="302.36221"
     y="226.77167"
     width="5mm"
     height="5mm"
     id="rect2257"
     style="fill:#eeeeee;fill-opacity:1" />
  <rect
     x="340.15747"
     y="226.77167"
     width="5mm"
     height="5mm"
     id="rect2259"
     style="fill:#eeeeee;fill-opacity:1" />
  <rect
     x="151.18109"
     y="245.66931"
     width="5mm"
     height="5mm"
     id="rect2261"
     style="fill:#eeeeee;fill-opacity:1" />
  <rect
     x="245.66931"
     y="245.66931"
     width="5mm"
     height="5mm"
     id="rect2263"
     style="fill:#eeeeee;fill-opacity:1" />
  <rect
     x="283.46457"
     y="245.66931"
     width="5mm"
     height="5mm"
     id="rect2265"
     style="fill:#eeeeee;fill-opacity:1" />
  <rect
     x="340.15747"
     y="245.66931"
     width="5mm"
     height="5mm"
     id="rect2267"
     style="fill:#eeeeee;fill-opacity:1" />
  <rect
     x="359.05511"
     y="245.66931"
     width="5mm"
     height="5mm"
     id="rect2269"
     style="fill:#eeeeee;fill-opacity:1" />
  <rect
     x="0"
     y="264.56693"
     width="5mm"
     height="5mm"
     id="rect2271"
     style="fill:#eeeeee;fill-opacity:1" />
  <rect
     x="18.897636"
     y="264.56693"
     width="5mm"
     height="5mm"
     id="rect2273"
     style="fill:#eeeeee;fill-opacity:1" />
  <rect
     x="37.795273"
     y="264.56693"
     width="5mm"
     height="5mm"
     id="rect2275"
     style="fill:#eeeeee;fill-opacity:1" />
  <rect
     x="56.692909"
     y="264.56693"
     width="5mm"
     height="5mm"
     id="rect2277"
     style="fill:#eeeeee;fill-opacity:1" />
  <rect
     x="75.590553"
     y="264.56693"
     width="5mm"
     height="5mm"
     id="rect2279"
     style="fill:#eeeeee;fill-opacity:1" />
  <rect
     x="94.488182"
     y="264.56693"
     width="5mm"
     height="5mm"
     id="rect2281"
     style="fill:#eeeeee;fill-opacity:1" />
  <rect
     x="113.38583"
     y="264.56693"
     width="5mm"
     height="5mm"
     id="rect2283"
     style="fill:#eeeeee;fill-opacity:1" />
  <rect
     x="170.07874"
     y="264.56693"
     width="5mm"
     height="5mm"
     id="rect2285"
     style="fill:#eeeeee;fill-opacity:1" />
  <rect
     x="245.66931"
     y="264.56693"
     width="5mm"
     height="5mm"
     id="rect2287"
     style="fill:#eeeeee;fill-opacity:1" />
  <rect
     x="264.56693"
     y="264.56693"
     width="5mm"
     height="5mm"
     id="rect2289"
     style="fill:#eeeeee;fill-opacity:1" />
  <rect
     x="302.36221"
     y="264.56693"
     width="5mm"
     height="5mm"
     id="rect2291"
     style="fill:#eeeeee;fill-opacity:1" />
  <rect
     x="340.15747"
     y="264.56693"
     width="5mm"
     height="5mm"
     id="rect2293"
     style="fill:#eeeeee;fill-opacity:1" />
  <rect
     x="0"
     y="283.46457"
     width="5mm"
     height="5mm"
     id="rect2295"
     style="fill:#eeeeee;fill-opacity:1" />
  <rect
     x="113.38583"
     y="283.46457"
     width="5mm"
     height="5mm"
     id="rect2297"
     style="fill:#eeeeee;fill-opacity:1" />
  <rect
     x="188.97638"
     y="283.46457"
     width="5mm"
     height="5mm"
     id="rect2299"
     style="fill:#eeeeee;fill-opacity:1" />
  <rect
     x="207.87402"
     y="283.46457"
     width="5mm"
     height="5mm"
     id="rect2301"
     style="fill:#eeeeee;fill-opacity:1" />
  <rect
     x="226.77167"
     y="283.46457"
     width="5mm"
     height="5mm"
     id="rect2303"
     style="fill:#eeeeee;fill-opacity:1" />
  <rect
     x="245.66931"
     y="283.46457"
     width="5mm"
     height="5mm"
     id="rect2305"
     style="fill:#eeeeee;fill-opacity:1" />
  <rect
     x="264.56693"
     y="283.46457"
     width="5mm"
     height="5mm"
     id="rect2307"
     style="fill:#eeeeee;fill-opacity:1" />
  <rect
     x="321.25986"
     y="283.46457"
     width="5mm"
     height="5mm"
     id="rect2309"
     style="fill:#eeeeee;fill-opacity:1" />
  <rect
     x="377.95276"
     y="283.46457"
     width="5mm"
     height="5mm"
     id="rect2311"
     style="fill:#eeeeee;fill-opacity:1" />
  <rect
     x="0"
     y="302.36221"
     width="5mm"
     height="5mm"
     id="rect2313"
     style="fill:#eeeeee;fill-opacity:1" />
  <rect
     x="37.795273"
     y="302.36221"
     width="5mm"
     height="5mm"
     id="rect2315"
     style="fill:#eeeeee;fill-opacity:1" />
  <rect
     x="56.692909"
     y="302.36221"
     width="5mm"
     height="5mm"
     id="rect2317"
     style="fill:#eeeeee;fill-opacity:1" />
  <rect
     x="75.590553"
     y="302.36221"
     width="5mm"
     height="5mm"
     id="rect2319"
     style="fill:#eeeeee;fill-opacity:1" />
  <rect
     x="113.38583"
     y="302.36221"
     width="5mm"
     height="5mm"
     id="rect2321"
     style="fill:#eeeeee;fill-opacity:1" />
  <rect
     x="188.97638"
     y="302.36221"
     width="5mm"
     height="5mm"
     id="rect2323"
     style="fill:#eeeeee;fill-opacity:1" />
  <rect
     x="207.87402"
     y="302.36221"
     width="5mm"
     height="5mm"
     id="rect2325"
     style="fill:#eeeeee;fill-opacity:1" />
  <rect
     x="264.56693"
     y="302.36221"
     width="5mm"
     height="5mm"
     id="rect2327"
     style="fill:#eeeeee;fill-opacity:1" />
  <rect
     x="321.25986"
     y="302.36221"
     width="5mm"
     height="5mm"
     id="rect2329"
     style="fill:#eeeeee;fill-opacity:1" />
  <rect
     x="377.95276"
     y="302.36221"
     width="5mm"
     height="5mm"
     id="rect2331"
     style="fill:#eeeeee;fill-opacity:1" />
  <rect
     x="0"
     y="321.25986"
     width="5mm"
     height="5mm"
     id="rect2333"
     style="fill:#eeeeee;fill-opacity:1" />
  <rect
     x="37.795273"
     y="321.25986"
     width="5mm"
     height="5mm"
     id="rect2335"
     style="fill:#eeeeee;fill-opacity:1" />
  <rect
     x="56.692909"
     y="321.25986"
     width="5mm"
     height="5mm"
     id="rect2337"
     style="fill:#eeeeee;fill-opacity:1" />
  <rect
     x="75.590553"
     y="321.25986"
     width="5mm"
     height="5mm"
     id="rect2339"
     style="fill:#eeeeee;fill-opacity:1" />
  <rect
     x="113.38583"
     y="321.25986"
     width="5mm"
     height="5mm"
     id="rect2341"
     style="fill:#eeeeee;fill-opacity:1" />
  <rect
     x="151.18109"
     y="321.25986"
     width="5mm"
     height="5mm"
     id="rect2343"
     style="fill:#eeeeee;fill-opacity:1" />
  <rect
     x="170.07874"
     y="321.25986"
     width="5mm"
     height="5mm"
     id="rect2345"
     style="fill:#eeeeee;fill-opacity:1" />
  <rect
     x="188.97638"
     y="321.25986"
     width="5mm"
     height="5mm"
     id="rect2347"
     style="fill:#eeeeee;fill-opacity:1" />
  <rect
     x="245.66931"
     y="321.25986"
     width="5mm"
     height="5mm"
     id="rect2349"
     style="fill:#eeeeee;fill-opacity:1" />
  <rect
     x="302.36221"
     y="321.25986"
     width="5mm"
     height="5mm"
     id="rect2351"
     style="fill:#eeeeee;fill-opacity:1" />
  <rect
     x="359.05511"
     y="321.25986"
     width="5mm"
     height="5mm"
     id="rect2353"
     style="fill:#eeeeee;fill-opacity:1" />
  <rect
     x="0"
     y="340.15747"
     width="5mm"
     height="5mm"
     id="rect2355"
     style="fill:#eeeeee;fill-opacity:1" />
  <rect
     x="37.795273"
     y="340.15747"
     width="5mm"
     height="5mm"
     id="rect2357"
     style="fill:#eeeeee;fill-opacity:1" />
  <rect
     x="56.692909"
     y="340.15747"
     width="5mm"
     height="5mm"
     id="rect2359"
     style="fill:#eeeeee;fill-opacity:1" />
  <rect
     x="75.590553"
     y="340.15747"
     width="5mm"
     height="5mm"
     id="rect2361"
     style="fill:#eeeeee;fill-opacity:1" />
  <rect
     x="113.38583"
     y="340.15747"
     width="5mm"
     height="5mm"
     id="rect2363"
     style="fill:#eeeeee;fill-opacity:1" />
  <rect
     x="151.18109"
     y="340.15747"
     width="5mm"
     height="5mm"
     id="rect2365"
     style="fill:#eeeeee;fill-opacity:1" />
  <rect
     x="188.97638"
     y="340.15747"
     width="5mm"
     height="5mm"
     id="rect2367"
     style="fill:#eeeeee;fill-opacity:1" />
  <rect
     x="207.87402"
     y="340.15747"
     width="5mm"
     height="5mm"
     id="rect2369"
     style="fill:#eeeeee;fill-opacity:1" />
  <rect
     x="245.66931"
     y="340.15747"
     width="5mm"
     height="5mm"
     id="rect2371"
     style="fill:#eeeeee;fill-opacity:1" />
  <rect
     x="302.36221"
     y="340.15747"
     width="5mm"
     height="5mm"
     id="rect2373"
     style="fill:#eeeeee;fill-opacity:1" />
  <rect
     x="321.25986"
     y="340.15747"
     width="5mm"
     height="5mm"
     id="rect2375"
     style="fill:#eeeeee;fill-opacity:1" />
  <rect
     x="340.15747"
     y="340.15747"
     width="5mm"
     height="5mm"
     id="rect2377"
     style="fill:#eeeeee;fill-opacity:1" />
  <rect
     x="0"
     y="359.05511"
     width="5mm"
     height="5mm"
     id="rect2379"
     style="fill:#eeeeee;fill-opacity:1" />
  <rect
     x="113.38583"
     y="359.05511"
     width="5mm"
     height="5mm"
     id="rect2381"
     style="fill:#eeeeee;fill-opacity:1" />
  <rect
     x="151.18109"
     y="359.05511"
     width="5mm"
     height="5mm"
     id="rect2383"
     style="fill:#eeeeee;fill-opacity:1" />
  <rect
     x="188.97638"
     y="359.05511"
     width="5mm"
     height="5mm"
     id="rect2385"
     style="fill:#eeeeee;fill-opacity:1" />
  <rect
     x="207.87402"
     y="359.05511"
     width="5mm"
     height="5mm"
     id="rect2387"
     style="fill:#eeeeee;fill-opacity:1" />
  <rect
     x="226.77167"
     y="359.05511"
     width="5mm"
     height="5mm"
     id="rect2389"
     style="fill:#eeeeee;fill-opacity:1" />
  <rect
     x="264.56693"
     y="359.05511"
     width="5mm"
     height="5mm"
     id="rect2391"
     style="fill:#eeeeee;fill-opacity:1" />
  <rect
     x="302.36221"
     y="359.05511"
     width="5mm"
     height="5mm"
     id="rect2393"
     style="fill:#eeeeee;fill-opacity:1" />
  <rect
     x="321.25986"
     y="359.05511"
     width="5mm"
     height="5mm"
     id="rect2395"
     style="fill:#eeeeee;fill-opacity:1" />
  <rect
     x="377.95276"
     y="359.05511"
     width="5mm"
     height="5mm"
     id="rect2397"
     style="fill:#eeeeee;fill-opacity:1" />
  <rect
     x="0"
     y="377.95276"
     width="5mm"
     height="5mm"
     id="rect2399"
     style="fill:#eeeeee;fill-opacity:1" />
  <rect
     x="18.897636"
     y="377.95276"
     width="5mm"
     height="5mm"
     id="rect2401"
     style="fill:#eeeeee;fill-opacity:1" />
  <rect
     x="37.795273"
     y="377.95276"
     width="5mm"
     height="5mm"
     id="rect2403"
     style="fill:#eeeeee;fill-opacity:1" />
  <rect
     x="56.692909"
     y="377.95276"
     width="5mm"
     height="5mm"
     id="rect2405"
     style="fill:#eeeeee;fill-opacity:1" />
  <rect
     x="75.590553"
     y="377.95276"
     width="5mm"
     height="5mm"
     id="rect2407"
     style="fill:#eeeeee;fill-opacity:1" />
  <rect
     x="94.488182"
     y="377.95276"
     width="5mm"
     height="5mm"
     id="rect2409"
     style="fill:#eeeeee;fill-opacity:1" />
  <rect
     x="113.38583"
     y="377.95276"
     width="5mm"
     height="5mm"
     id="rect2411"
     style="fill:#eeeeee;fill-opacity:1" />
  <rect
     x="151.18109"
     y="377.95276"
     width="5mm"
     height="5mm"
     id="rect2413"
     style="fill:#eeeeee;fill-opacity:1" />
  <rect
     x="170.07874"
     y="377.95276"
     width="5mm"
     height="5mm"
     id="rect2415"
     style="fill:#eeeeee;fill-opacity:1" />
  <rect
     x="188.97638"
     y="377.95276"
     width="5mm"
     height="5mm"
     id="rect2417"
     style="fill:#eeeeee;fill-opacity:1" />
  <rect
     x="207.87402"
     y="377.95276"
     width="5mm"
     height="5mm"
     id="rect2419"
     style="fill:#eeeeee;fill-opacity:1" />
  <rect
     x="226.77167"
     y="377.95276"
     width="5mm"
     height="5mm"
     id="rect2421"
     style="fill:#eeeeee;fill-opacity:1" />
  <rect
     x="283.46457"
     y="377.95276"
     width="5mm"
     height="5mm"
     id="rect2423"
     style="fill:#eeeeee;fill-opacity:1" />
  <rect
     x="321.25986"
     y="377.95276"
     width="5mm"
     height="5mm"
     id="rect2425"
     style="fill:#eeeeee;fill-opacity:1" />
</svg>
