<?xml version="1.0" encoding="UTF-8" standalone="no"?>
<!-- Generator: Adobe Illustrator 23.0.1, SVG Export Plug-In . SVG Version: 6.00 Build 0)  -->

<svg
   version="1.1"
   id="Livello_1"
   x="0px"
   y="0px"
   viewBox="0 0 130.41198 108.04751"
   enable-background="new 0 0 240.1 240.1"
   xml:space="preserve"
   width="130.41199"
   height="108.04751"
   xmlns="http://www.w3.org/2000/svg"
   xmlns:svg="http://www.w3.org/2000/svg"><defs
   id="defs13">
	
		<linearGradient
   id="Oval_1_"
   gradientUnits="userSpaceOnUse"
   x1="-838.04102"
   y1="660.58099"
   x2="-838.04102"
   y2="660.34271"
   gradientTransform="matrix(1000,0,0,-1000,838161,660581)">
		<stop
   offset="0"
   style="stop-color:#424d58"
   id="stop2" />
		<stop
   offset="1"
   style="stop-color:#272a2f"
   id="stop4" />
	</linearGradient>
	
	
</defs>
<path
   id="Path-3"
   fill-rule="evenodd"
   clip-rule="evenodd"
   fill="#eeeeee"
   d="M 8.9291371,46.6 C 43.929137,31.4 67.229137,21.3 78.929137,16.4 112.22914,2.5 119.22914,0.1 123.72914,0 c 1,0 3.2,0.2 4.7,1.4 1.2,1 1.5,2.3 1.7,3.3 0.2,1 0.4,3.1 0.2,4.7 -1.8,19 -9.6,65.1 -13.6,86.3 -1.7,9 -5,12 -8.2,12.3 -7,0.6 -12.300003,-4.6 -19.000003,-9 -10.6,-6.9 -16.5,-11.2 -26.8,-18 -11.9,-7.8 -4.2,-12.1 2.6,-19.1 1.8,-1.8 32.5,-29.8 33.1,-32.3 0.1,-0.3 0.1,-1.5 -0.6,-2.1 -0.7,-0.6 -1.7,-0.4 -2.5,-0.2 -1.1,0.2 -17.9,11.4 -50.6,33.5 -4.8,3.3 -9.1,4.9 -13,4.8 -4.3,-0.1 -12.5,-2.4 -18.7,-4.4 -7.4999999,-2.4 -13.49999986,-3.7 -12.99999986,-7.9 0.3,-2.2 3.29999996,-4.4 8.89999996,-6.7 z"
   style="fill:#eeeeee;fill-opacity:1" />
</svg>
